<svg width="27" height="27" viewBox="0 0 27 27" fill="none" xmlns="http://www.w3.org/2000/svg">
<path d="M6.75 21.375C6.75 22.6125 7.7625 23.625 9 23.625H18C19.2375 23.625 20.25 22.6125 20.25 21.375V7.875H6.75V21.375ZM20.25 4.5H17.4375L16.6388 3.70125C16.4362 3.49875 16.1438 3.375 15.8512 3.375H11.1487C10.8562 3.375 10.5638 3.49875 10.3612 3.70125L9.5625 4.5H6.75C6.13125 4.5 5.625 5.00625 5.625 5.625C5.625 6.24375 6.13125 6.75 6.75 6.75H20.25C20.8687 6.75 21.375 6.24375 21.375 5.625C21.375 5.00625 20.8687 4.5 20.25 4.5Z" fill="#304560"/>
</svg>
